<svg xmlns="http://www.w3.org/2000/svg" version="1.1" xmlns:xlink="http://www.w3.org/1999/xlink" xmlns:svgjs="http://svgjs.dev/svgjs" width="2000" height="1247" viewBox="0 0 2000 1247"><g transform="matrix(1,0,0,1,-1.2121212121212466,0.504858299595071)"><svg viewBox="0 0 396 247" data-background-color="#ffffff" preserveAspectRatio="xMidYMid meet" height="1247" width="2000" xmlns="http://www.w3.org/2000/svg" xmlns:xlink="http://www.w3.org/1999/xlink"><g id="tight-bounds" transform="matrix(1,0,0,1,0.2400000000000091,-0.09999999999999432)"><svg viewBox="0 0 395.52 247.2" height="247.2" width="395.52"><g><svg></svg></g><g><svg viewBox="0 0 395.52 247.2" height="247.2" width="395.52"><g transform="matrix(1,0,0,1,75.54432,96.92208396336886)"><svg viewBox="0 0 244.43135999999998 53.35583207326227" height="53.35583207326227" width="244.43135999999998"><g><svg viewBox="0 0 244.43135999999998 53.35583207326227" height="53.35583207326227" width="244.43135999999998"><g><svg viewBox="0 0 244.43135999999998 53.35583207326227" height="53.35583207326227" width="244.43135999999998"><g><svg viewBox="0 0 244.43135999999998 53.35583207326227" height="53.35583207326227" width="244.43135999999998"><g id="textblocktransform"><svg viewBox="0 0 244.43135999999998 53.35583207326227" height="53.35583207326227" width="244.43135999999998" id="textblock"><g><svg viewBox="0 0 244.43135999999998 53.35583207326227" height="53.35583207326227" width="244.43135999999998"><g transform="matrix(1,0,0,1,0,0)"><svg width="244.43135999999998" viewBox="3 -35.5 162.62 35.5" height="53.35583207326227" data-palette-color="#2a2c35"><path d="M37.99-25L37.99 0 31.01 0 31.01-25Q31.01-25.73 30.73-26.37 30.44-27 29.97-27.48 29.49-27.95 28.86-28.22 28.22-28.49 27.49-28.49L27.49-28.49Q26.76-28.49 26.12-28.22 25.49-27.95 25.01-27.48 24.54-27 24.27-26.37 24-25.73 24-25L24-25 24 0 16.99 0 16.99-25Q16.99-25.73 16.72-26.37 16.46-27 15.98-27.48 15.5-27.95 14.87-28.22 14.23-28.49 13.5-28.49L13.5-28.49Q12.77-28.49 12.13-28.22 11.5-27.95 11.02-27.48 10.55-27 10.28-26.37 10.01-25.73 10.01-25L10.01-25 10.01 0 3 0 3-25Q3-27.17 3.82-29.09 4.64-31.01 6.07-32.43 7.5-33.86 9.41-34.68 11.33-35.5 13.5-35.5L13.5-35.5Q15.45-35.5 17.26-34.8 19.07-34.11 20.51-32.79L20.51-32.79Q21.95-34.11 23.74-34.8 25.54-35.5 27.49-35.5L27.49-35.5Q29.66-35.5 31.58-34.68 33.5-33.86 34.92-32.43 36.35-31.01 37.17-29.09 37.99-27.17 37.99-25L37.99-25ZM50.83-13.99L64.84-13.99 64.84-21Q64.84-22.44 64.29-23.72 63.74-25 62.79-25.95 61.84-26.9 60.56-27.45 59.27-28 57.83-28L57.83-28Q56.39-28 55.11-27.45 53.83-26.9 52.88-25.95 51.93-25 51.38-23.72 50.83-22.44 50.83-21L50.83-21 50.83-13.99ZM71.85-21L71.85 0 64.84 0 64.84-7.01 50.83-7.01 50.83 0 43.85 0 43.85-21Q43.85-23.9 44.94-26.45 46.04-29 47.93-30.91 49.83-32.81 52.38-33.91 54.93-35.01 57.83-35.01L57.83-35.01Q60.74-35.01 63.29-33.91 65.84-32.81 67.75-30.91 69.65-29 70.75-26.45 71.85-23.9 71.85-21L71.85-21ZM102.44-7.01L102.44 0 77.92 0 77.92-35.01 84.93-35.01 84.93-7.01 102.44-7.01ZM112.66-13.99L126.68-13.99 126.68-21Q126.68-22.44 126.13-23.72 125.58-25 124.63-25.95 123.67-26.9 122.39-27.45 121.11-28 119.67-28L119.67-28Q118.23-28 116.95-27.45 115.67-26.9 114.71-25.95 113.76-25 113.21-23.72 112.66-22.44 112.66-21L112.66-21 112.66-13.99ZM133.68-21L133.68 0 126.68 0 126.68-7.01 112.66-7.01 112.66 0 105.68 0 105.68-21Q105.68-23.9 106.78-26.45 107.88-29 109.77-30.91 111.66-32.81 114.21-33.91 116.76-35.01 119.67-35.01L119.67-35.01Q122.58-35.01 125.13-33.91 127.68-32.81 129.58-30.91 131.49-29 132.59-26.45 133.68-23.9 133.68-21L133.68-21ZM155.12-10.96L155.12 0 148.13 0 148.13-10.96Q145.82-11.55 143.87-12.84 141.93-14.14 140.54-15.93 139.15-17.72 138.38-19.91 137.61-22.09 137.61-24.51L137.61-24.51 137.61-35.01 144.62-35.01 144.62-24.51Q144.62-23.07 145.17-21.79 145.72-20.51 146.67-19.56 147.62-18.6 148.9-18.05 150.19-17.5 151.63-17.5L151.63-17.5Q153.07-17.5 154.35-18.05 155.63-18.6 156.58-19.56 157.53-20.51 158.08-21.79 158.63-23.07 158.63-24.51L158.63-24.51 158.63-35.01 165.62-35.01 165.62-24.51Q165.62-22.09 164.85-19.91 164.08-17.72 162.69-15.93 161.29-14.14 159.37-12.84 157.44-11.55 155.12-10.96L155.12-10.96Z" opacity="1" transform="matrix(1,0,0,1,0,0)" fill="#ffffff" class="wordmark-text-0" data-fill-palette-color="primary" id="text-0"></path></svg></g></svg></g></svg></g></svg></g></svg></g></svg></g></svg></g><path d="M193.675 90.922L193.675 31.001 8.477 31.001 8.477 216.199 193.675 216.199 193.675 156.278 188.863 156.278 188.863 211.387 13.289 211.387 13.289 35.813 188.863 35.813 188.863 90.922Z" fill="#ffffff" stroke="transparent" data-fill-palette-color="tertiary"></path></svg></g><defs></defs></svg><rect width="395.52" height="247.2" fill="none" stroke="none" visibility="hidden"></rect></g></svg></g></svg>